# idler-bracket-lp-2210-01 — L-profile idler bracket, 40 x 35 x 12 mm
# Extruded from a 6-point L outline: 6 quad side walls, 8 triangulated cap faces.
# Watertight; fan triangulation of the quads yields 20 triangles.
o idler-bracket-lp-2210-01
v 0.000 0.000 0.000
v 40.000 0.000 0.000
v 40.000 10.000 0.000
v 10.000 10.000 0.000
v 10.000 35.000 0.000
v 0.000 35.000 0.000
v 0.000 0.000 12.000
v 40.000 0.000 12.000
v 40.000 10.000 12.000
v 10.000 10.000 12.000
v 10.000 35.000 12.000
v 0.000 35.000 12.000
f 1 2 8 7
f 2 3 9 8
f 3 4 10 9
f 4 5 11 10
f 5 6 12 11
f 6 1 7 12
f 7 8 9
f 3 2 1
f 7 9 10
f 4 3 1
f 12 7 10
f 4 1 6
f 10 11 12
f 6 5 4
