                                                                        S0000001
,,31HOpen CASCADE IGES processor 8.0,13HFilename.iges,                  G0000001
16HOpen CASCADE 8.0,31HOpen CASCADE IGES processor 8.0,32,308,15,308,15,G0000002
,1.,2,2HMM,1,0.01,15H20260913.114224,1.05357E-07,60.,,,11,0,            G0000003
15H20260913.114224,;                                                    G0000004
     402       1       0       0       0       0       0       000000000D0000001
     402       0       0       1       1                angle-br        D0000002
     144       2       0       0       0       0       0       000020000D0000003
     144       0       0       1       0                               0D0000004
     108       3       0       0       0       0       0       000010000D0000005
     108       0       0       1       0                               0D0000006
     142       4       0       0       0       0       0       000010500D0000007
     142       0       0       1       0                               0D0000008
     102       5       0       0       0       0       0       000010000D0000009
     102       0       0       1       0                               0D0000010
     110       6       0       0       0       0       0       000010000D0000011
     110       0       0       1       0                               0D0000012
     110       7       0       0       0       0       0       000010000D0000013
     110       0       0       1       0                               0D0000014
     110       8       0       0       0       0       0       000010000D0000015
     110       0       0       1       0                               0D0000016
     110       9       0       0       0       0       0       000010000D0000017
     110       0       0       1       0                               0D0000018
     144      10       0       0       0       0       0       000020000D0000019
     144       0       0       1       0                               0D0000020
     108      11       0       0       0       0       0       000010000D0000021
     108       0       0       1       0                               0D0000022
     142      12       0       0       0       0       0       000010500D0000023
     142       0       0       1       0                               0D0000024
     102      13       0       0       0       0       0       000010000D0000025
     102       0       0       1       0                               0D0000026
     110      14       0       0       0       0       0       000010000D0000027
     110       0       0       1       0                               0D0000028
     110      15       0       0       0       0       0       000010000D0000029
     110       0       0       1       0                               0D0000030
     110      16       0       0       0       0       0       000010000D0000031
     110       0       0       1       0                               0D0000032
     110      17       0       0       0       0       0       000010000D0000033
     110       0       0       1       0                               0D0000034
     144      18       0       0       0       0       0       000020000D0000035
     144       0       0       1       0                               0D0000036
     108      19       0       0       0       0       0       000010000D0000037
     108       0       0       1       0                               0D0000038
     142      20       0       0       0       0       0       000010500D0000039
     142       0       0       1       0                               0D0000040
     102      21       0       0       0       0       0       000010000D0000041
     102       0       0       1       0                               0D0000042
     110      22       0       0       0       0       0       000010000D0000043
     110       0       0       1       0                               0D0000044
     110      23       0       0       0       0       0       000010000D0000045
     110       0       0       1       0                               0D0000046
     110      24       0       0       0       0       0       000010000D0000047
     110       0       0       1       0                               0D0000048
     110      25       0       0       0       0       0       000010000D0000049
     110       0       0       1       0                               0D0000050
     144      26       0       0       0       0       0       000020000D0000051
     144       0       0       1       0                               0D0000052
     108      27       0       0       0       0       0       000010000D0000053
     108       0       0       1       0                               0D0000054
     142      28       0       0       0       0       0       000010500D0000055
     142       0       0       1       0                               0D0000056
     102      29       0       0       0       0       0       000010000D0000057
     102       0       0       1       0                               0D0000058
     110      30       0       0       0       0       0       000010000D0000059
     110       0       0       1       0                               0D0000060
     110      31       0       0       0       0       0       000010000D0000061
     110       0       0       1       0                               0D0000062
     110      32       0       0       0       0       0       000010000D0000063
     110       0       0       1       0                               0D0000064
     110      33       0       0       0       0       0       000010000D0000065
     110       0       0       1       0                               0D0000066
     144      34       0       0       0       0       0       000020000D0000067
     144       0       0       1       0                               0D0000068
     108      35       0       0       0       0       0       000010000D0000069
     108       0       0       1       0                               0D0000070
     142      36       0       0       0       0       0       000010500D0000071
     142       0       0       1       0                               0D0000072
     102      37       0       0       0       0       0       000010000D0000073
     102       0       0       1       0                               0D0000074
     110      38       0       0       0       0       0       000010000D0000075
     110       0       0       1       0                               0D0000076
     110      39       0       0       0       0       0       000010000D0000077
     110       0       0       1       0                               0D0000078
     110      40       0       0       0       0       0       000010000D0000079
     110       0       0       1       0                               0D0000080
     110      41       0       0       0       0       0       000010000D0000081
     110       0       0       1       0                               0D0000082
     144      42       0       0       0       0       0       000020000D0000083
     144       0       0       1       0                               0D0000084
     108      43       0       0       0       0       0       000010000D0000085
     108       0       0       1       0                               0D0000086
     142      44       0       0       0       0       0       000010500D0000087
     142       0       0       1       0                               0D0000088
     102      45       0       0       0       0       0       000010000D0000089
     102       0       0       1       0                               0D0000090
     110      46       0       0       0       0       0       000010000D0000091
     110       0       0       1       0                               0D0000092
     110      47       0       0       0       0       0       000010000D0000093
     110       0       0       1       0                               0D0000094
     110      48       0       0       0       0       0       000010000D0000095
     110       0       0       1       0                               0D0000096
     110      49       0       0       0       0       0       000010000D0000097
     110       0       0       1       0                               0D0000098
     144      50       0       0       0       0       0       000020000D0000099
     144       0       0       1       0                               0D0000100
     108      51       0       0       0       0       0       000010000D0000101
     108       0       0       1       0                               0D0000102
     142      52       0       0       0       0       0       000010500D0000103
     142       0       0       1       0                               0D0000104
     102      53       0       0       0       0       0       000010000D0000105
     102       0       0       1       0                               0D0000106
     110      54       0       0       0       0       0       000010000D0000107
     110       0       0       1       0                               0D0000108
     110      55       0       0       0       0       0       000010000D0000109
     110       0       0       1       0                               0D0000110
     110      56       0       0       0       0       0       000010000D0000111
     110       0       0       1       0                               0D0000112
     110      57       0       0       0       0       0       000010000D0000113
     110       0       0       1       0                               0D0000114
     144      58       0       0       0       0       0       000020000D0000115
     144       0       0       1       0                               0D0000116
     108      59       0       0       0       0       0       000010000D0000117
     108       0       0       1       0                               0D0000118
     142      60       0       0       0       0       0       000010500D0000119
     142       0       0       1       0                               0D0000120
     102      61       0       0       0       0       0       000010000D0000121
     102       0       0       1       0                               0D0000122
     110      62       0       0       0       0       0       000010000D0000123
     110       0       0       1       0                               0D0000124
     110      63       0       0       0       0       0       000010000D0000125
     110       0       0       1       0                               0D0000126
     110      64       0       0       0       0       0       000010000D0000127
     110       0       0       1       0                               0D0000128
     110      65       0       0       0       0       0       000010000D0000129
     110       0       0       1       0                               0D0000130
     144      66       0       0       0       0       0       000020000D0000131
     144       0       0       1       0                               0D0000132
     108      67       0       0       0       0       0       000010000D0000133
     108       0       0       1       0                               0D0000134
     142      68       0       0       0       0       0       000010500D0000135
     142       0       0       1       0                               0D0000136
     102      69       0       0       0       0       0       000010000D0000137
     102       0       0       1       0                               0D0000138
     110      70       0       0       0       0       0       000010000D0000139
     110       0       0       1       0                               0D0000140
     110      71       0       0       0       0       0       000010000D0000141
     110       0       0       1       0                               0D0000142
     110      72       0       0       0       0       0       000010000D0000143
     110       0       0       1       0                               0D0000144
     110      73       0       0       0       0       0       000010000D0000145
     110       0       0       1       0                               0D0000146
     144      74       0       0       0       0       0       000020000D0000147
     144       0       0       1       0                               0D0000148
     108      75       0       0       0       0       0       000010000D0000149
     108       0       0       1       0                               0D0000150
     142      76       0       0       0       0       0       000010500D0000151
     142       0       0       1       0                               0D0000152
     102      77       0       0       0       0       0       000010000D0000153
     102       0       0       1       0                               0D0000154
     110      78       0       0       0       0       0       000010000D0000155
     110       0       0       1       0                               0D0000156
     110      79       0       0       0       0       0       000010000D0000157
     110       0       0       1       0                               0D0000158
     110      80       0       0       0       0       0       000010000D0000159
     110       0       0       1       0                               0D0000160
     110      81       0       0       0       0       0       000010000D0000161
     110       0       0       1       0                               0D0000162
     144      82       0       0       0       0       0       000020000D0000163
     144       0       0       1       0                               0D0000164
     108      83       0       0       0       0       0       000010000D0000165
     108       0       0       1       0                               0D0000166
     142      84       0       0       0       0       0       000010500D0000167
     142       0       0       1       0                               0D0000168
     102      85       0       0       0       0       0       000010000D0000169
     102       0       0       1       0                               0D0000170
     110      86       0       0       0       0       0       000010000D0000171
     110       0       0       1       0                               0D0000172
     110      87       0       0       0       0       0       000010000D0000173
     110       0       0       1       0                               0D0000174
     110      88       0       0       0       0       0       000010000D0000175
     110       0       0       1       0                               0D0000176
     110      89       0       0       0       0       0       000010000D0000177
     110       0       0       1       0                               0D0000178
     144      90       0       0       0       0       0       000020000D0000179
     144       0       0       1       0                               0D0000180
     108      91       0       0       0       0       0       000010000D0000181
     108       0       0       1       0                               0D0000182
     142      92       0       0       0       0       0       000010500D0000183
     142       0       0       1       0                               0D0000184
     102      93       0       0       0       0       0       000010000D0000185
     102       0       0       1       0                               0D0000186
     110      94       0       0       0       0       0       000010000D0000187
     110       0       0       1       0                               0D0000188
     110      95       0       0       0       0       0       000010000D0000189
     110       0       0       1       0                               0D0000190
     110      96       0       0       0       0       0       000010000D0000191
     110       0       0       1       0                               0D0000192
     110      97       0       0       0       0       0       000010000D0000193
     110       0       0       1       0                               0D0000194
     144      98       0       0       0       0       0       000020000D0000195
     144       0       0       1       0                               0D0000196
     108      99       0       0       0       0       0       000010000D0000197
     108       0       0       1       0                               0D0000198
     142     100       0       0       0       0       0       000010500D0000199
     142       0       0       1       0                               0D0000200
     102     101       0       0       0       0       0       000010000D0000201
     102       0       0       1       0                               0D0000202
     110     102       0       0       0       0       0       000010000D0000203
     110       0       0       1       0                               0D0000204
     110     103       0       0       0       0       0       000010000D0000205
     110       0       0       1       0                               0D0000206
     110     104       0       0       0       0       0       000010000D0000207
     110       0       0       1       0                               0D0000208
     110     105       0       0       0       0       0       000010000D0000209
     110       0       0       1       0                               0D0000210
     144     106       0       0       0       0       0       000020000D0000211
     144       0       0       1       0                               0D0000212
     108     107       0       0       0       0       0       000010000D0000213
     108       0       0       1       0                               0D0000214
     142     108       0       0       0       0       0       000010500D0000215
     142       0       0       1       0                               0D0000216
     102     109       0       0       0       0       0       000010000D0000217
     102       0       0       1       0                               0D0000218
     110     110       0       0       0       0       0       000010000D0000219
     110       0       0       1       0                               0D0000220
     110     111       0       0       0       0       0       000010000D0000221
     110       0       0       1       0                               0D0000222
     110     112       0       0       0       0       0       000010000D0000223
     110       0       0       1       0                               0D0000224
     110     113       0       0       0       0       0       000010000D0000225
     110       0       0       1       0                               0D0000226
     406     114       0       0       0       0       0       000000000D0000227
     406       0       0       1      15                               0D0000228
402,14,3,19,35,51,67,83,99,115,131,147,163,179,195,211,0,1,227;  0000001P0000001
144,5,1,0,7;                                                     0000003P0000002
108,-1.,-0.,0.,0.,0,0.,0.,0.,0.;                                 0000005P0000003
142,0,5,0,9,2;                                                   0000007P0000004
102,4,11,13,15,17;                                               0000009P0000005
110,0.,40.,0.,0.,0.,0.;                                          0000011P0000006
110,0.,0.,0.,0.,0.,8.;                                           0000013P0000007
110,0.,0.,8.,0.,40.,8.;                                          0000015P0000008
110,0.,40.,8.,0.,40.,0.;                                         0000017P0000009
144,21,1,0,23;                                                   0000019P0000010
108,0.,-1.,-0.,0.,0,0.,0.,0.,0.;                                 0000021P0000011
142,0,21,0,25,2;                                                 0000023P0000012
102,4,27,29,31,33;                                               0000025P0000013
110,0.,0.,8.,0.,0.,0.;                                           0000027P0000014
110,0.,0.,0.,8.,0.,0.;                                           0000029P0000015
110,8.,0.,0.,8.,0.,8.;                                           0000031P0000016
110,8.,0.,8.,0.,0.,8.;                                           0000033P0000017
144,37,1,0,39;                                                   0000035P0000018
108,-1.,-0.,0.,0.,0,0.,0.,0.,0.;                                 0000037P0000019
142,0,37,0,41,2;                                                 0000039P0000020
102,4,43,45,47,49;                                               0000041P0000021
110,0.,40.,8.,0.,0.,8.;                                          0000043P0000022
110,0.,0.,8.,0.,0.,60.;                                          0000045P0000023
110,0.,0.,60.,0.,40.,60.;                                        0000047P0000024
110,0.,40.,60.,0.,40.,8.;                                        0000049P0000025
144,53,1,0,55;                                                   0000051P0000026
108,-0.,1.,0.,40.,0,0.,40.,0.,0.;                                0000053P0000027
142,0,53,0,57,2;                                                 0000055P0000028
102,4,59,61,63,65;                                               0000057P0000029
110,8.,40.,0.,0.,40.,0.;                                         0000059P0000030
110,0.,40.,0.,0.,40.,8.;                                         0000061P0000031
110,0.,40.,8.,8.,40.,8.;                                         0000063P0000032
110,8.,40.,8.,8.,40.,0.;                                         0000065P0000033
144,69,1,0,71;                                                   0000067P0000034
108,-0.,-0.,-1.,-0.,0,0.,0.,0.,0.;                               0000069P0000035
142,0,69,0,73,2;                                                 0000071P0000036
102,4,75,77,79,81;                                               0000073P0000037
110,8.,0.,0.,0.,0.,0.;                                           0000075P0000038
110,0.,0.,0.,0.,40.,0.;                                          0000077P0000039
110,0.,40.,0.,8.,40.,0.;                                         0000079P0000040
110,8.,40.,0.,8.,0.,0.;                                          0000081P0000041
144,85,1,0,87;                                                   0000083P0000042
108,0.,-1.,-0.,0.,0,0.,0.,0.,0.;                                 0000085P0000043
142,0,85,0,89,2;                                                 0000087P0000044
102,4,91,93,95,97;                                               0000089P0000045
110,8.,0.,8.,8.,0.,0.;                                           0000091P0000046
110,8.,0.,0.,60.,0.,0.;                                          0000093P0000047
110,60.,0.,0.,60.,0.,8.;                                         0000095P0000048
110,60.,0.,8.,8.,0.,8.;                                          0000097P0000049
144,101,1,0,103;                                                 0000099P0000050
108,0.,-1.,-0.,0.,0,0.,0.,0.,0.;                                 0000101P0000051
142,0,101,0,105,2;                                               0000103P0000052
102,4,107,109,111,113;                                           0000105P0000053
110,0.,0.,60.,0.,0.,8.;                                          0000107P0000054
110,0.,0.,8.,8.,0.,8.;                                           0000109P0000055
110,8.,0.,8.,8.,0.,60.;                                          0000111P0000056
110,8.,0.,60.,0.,0.,60.;                                         0000113P0000057
144,117,1,0,119;                                                 0000115P0000058
108,0.,0.,1.,60.,0,0.,0.,60.,0.;                                 0000117P0000059
142,0,117,0,121,2;                                               0000119P0000060
102,4,123,125,127,129;                                           0000121P0000061
110,0.,40.,60.,0.,0.,60.;                                        0000123P0000062
110,0.,0.,60.,8.,0.,60.;                                         0000125P0000063
110,8.,0.,60.,8.,40.,60.;                                        0000127P0000064
110,8.,40.,60.,0.,40.,60.;                                       0000129P0000065
144,133,1,0,135;                                                 0000131P0000066
108,-0.,1.,0.,40.,0,0.,40.,0.,0.;                                0000133P0000067
142,0,133,0,137,2;                                               0000135P0000068
102,4,139,141,143,145;                                           0000137P0000069
110,8.,40.,8.,0.,40.,8.;                                         0000139P0000070
110,0.,40.,8.,0.,40.,60.;                                        0000141P0000071
110,0.,40.,60.,8.,40.,60.;                                       0000143P0000072
110,8.,40.,60.,8.,40.,8.;                                        0000145P0000073
144,149,1,0,151;                                                 0000147P0000074
108,-0.,1.,0.,40.,0,0.,40.,0.,0.;                                0000149P0000075
142,0,149,0,153,2;                                               0000151P0000076
102,4,155,157,159,161;                                           0000153P0000077
110,60.,40.,0.,8.,40.,0.;                                        0000155P0000078
110,8.,40.,0.,8.,40.,8.;                                         0000157P0000079
110,8.,40.,8.,60.,40.,8.;                                        0000159P0000080
110,60.,40.,8.,60.,40.,0.;                                       0000161P0000081
144,165,1,0,167;                                                 0000163P0000082
108,-0.,-0.,-1.,-0.,0,0.,0.,0.,0.;                               0000165P0000083
142,0,165,0,169,2;                                               0000167P0000084
102,4,171,173,175,177;                                           0000169P0000085
110,60.,0.,0.,8.,0.,0.;                                          0000171P0000086
110,8.,0.,0.,8.,40.,0.;                                          0000173P0000087
110,8.,40.,0.,60.,40.,0.;                                        0000175P0000088
110,60.,40.,0.,60.,0.,0.;                                        0000177P0000089
144,181,1,0,183;                                                 0000179P0000090
108,1.,0.,-0.,60.,0,60.,0.,0.,0.;                                0000181P0000091
142,0,181,0,185,2;                                               0000183P0000092
102,4,187,189,191,193;                                           0000185P0000093
110,60.,0.,8.,60.,0.,0.;                                         0000187P0000094
110,60.,0.,0.,60.,40.,0.;                                        0000189P0000095
110,60.,40.,0.,60.,40.,8.;                                       0000191P0000096
110,60.,40.,8.,60.,0.,8.;                                        0000193P0000097
144,197,1,0,199;                                                 0000195P0000098
108,0.,0.,1.,8.,0,0.,0.,8.,0.;                                   0000197P0000099
142,0,197,0,201,2;                                               0000199P0000100
102,4,203,205,207,209;                                           0000201P0000101
110,60.,40.,8.,8.,40.,8.;                                        0000203P0000102
110,8.,40.,8.,8.,0.,8.;                                          0000205P0000103
110,8.,0.,8.,60.,0.,8.;                                          0000207P0000104
110,60.,0.,8.,60.,40.,8.;                                        0000209P0000105
144,213,1,0,215;                                                 0000211P0000106
108,1.,0.,-0.,8.,0,8.,0.,0.,0.;                                  0000213P0000107
142,0,213,0,217,2;                                               0000215P0000108
102,4,219,221,223,225;                                           0000217P0000109
110,8.,0.,60.,8.,0.,8.;                                          0000219P0000110
110,8.,0.,8.,8.,40.,8.;                                          0000221P0000111
110,8.,40.,8.,8.,40.,60.;                                        0000223P0000112
110,8.,40.,60.,8.,0.,60.;                                        0000225P0000113
406,1,33Hangle-bracket-60x60x40-lp-9004-00;                      0000227P0000114
S      1G      4D    228P    114                                        T0000001
